<svg width="216" height="55" viewBox="0 0 216 55" fill="none" xmlns="http://www.w3.org/2000/svg">
<path d="M191 0.5H10C4.75329 0.5 0.5 4.75329 0.5 10V45C0.5 50.2467 4.75329 54.5 10 54.5H191C196.247 54.5 200.5 50.2467 200.5 45V10C200.5 4.75329 196.247 0.5 191 0.5Z" stroke="#949494"/>
<path d="M58.8161 17.432C59.9201 17.432 60.7241 17.672 61.2281 18.152C61.7401 18.624 61.9961 19.276 61.9961 20.108C61.9961 20.604 61.8921 21.072 61.6841 21.512C61.4761 21.944 61.1281 22.292 60.6401 22.556C60.1601 22.82 59.5041 22.952 58.6721 22.952H57.8921V26H56.0801V17.432H58.8161ZM58.7201 18.92H57.8921V21.464H58.4921C59.0041 21.464 59.4081 21.364 59.7041 21.164C60.0081 20.956 60.1601 20.624 60.1601 20.168C60.1601 19.336 59.6801 18.92 58.7201 18.92ZM68.5473 26H63.6153V17.432H68.5473V18.92H65.4273V20.804H68.3313V22.292H65.4273V24.5H68.5473V26ZM72.8261 17.432C73.9941 17.432 74.8541 17.644 75.4061 18.068C75.9661 18.492 76.2461 19.136 76.2461 20C76.2461 20.392 76.1701 20.736 76.0181 21.032C75.8741 21.32 75.6781 21.568 75.4301 21.776C75.1901 21.976 74.9301 22.14 74.6501 22.268L77.1701 26H75.1541L73.1141 22.712H72.1421V26H70.3301V17.432H72.8261ZM72.6941 18.92H72.1421V21.236H72.7301C73.3301 21.236 73.7581 21.136 74.0141 20.936C74.2781 20.736 74.4101 20.44 74.4101 20.048C74.4101 19.64 74.2701 19.352 73.9901 19.184C73.7181 19.008 73.2861 18.92 72.6941 18.92ZM83.304 23.624C83.304 24.384 83.028 24.992 82.476 25.448C81.932 25.896 81.156 26.12 80.148 26.12C79.244 26.12 78.436 25.948 77.724 25.604V23.912C78.132 24.088 78.552 24.252 78.984 24.404C79.424 24.548 79.86 24.62 80.292 24.62C80.74 24.62 81.056 24.536 81.24 24.368C81.432 24.192 81.528 23.972 81.528 23.708C81.528 23.492 81.452 23.308 81.3 23.156C81.156 23.004 80.96 22.864 80.712 22.736C80.464 22.6 80.18 22.456 79.86 22.304C79.66 22.208 79.444 22.096 79.212 21.968C78.98 21.832 78.756 21.668 78.54 21.476C78.332 21.276 78.16 21.036 78.024 20.756C77.888 20.476 77.82 20.14 77.82 19.748C77.82 18.98 78.08 18.384 78.6 17.96C79.12 17.528 79.828 17.312 80.724 17.312C81.172 17.312 81.596 17.364 81.996 17.468C82.404 17.572 82.828 17.72 83.268 17.912L82.68 19.328C82.288 19.168 81.936 19.044 81.624 18.956C81.312 18.868 80.992 18.824 80.664 18.824C80.32 18.824 80.056 18.904 79.872 19.064C79.688 19.224 79.596 19.432 79.596 19.688C79.596 19.992 79.732 20.232 80.004 20.408C80.276 20.584 80.68 20.8 81.216 21.056C81.656 21.264 82.028 21.48 82.332 21.704C82.644 21.928 82.884 22.192 83.052 22.496C83.22 22.8 83.304 23.176 83.304 23.624ZM92.6374 21.704C92.6374 22.592 92.4894 23.368 92.1934 24.032C91.9054 24.688 91.4614 25.2 90.8614 25.568C90.2614 25.936 89.4934 26.12 88.5574 26.12C87.6294 26.12 86.8614 25.936 86.2534 25.568C85.6534 25.2 85.2054 24.684 84.9094 24.02C84.6214 23.356 84.4774 22.58 84.4774 21.692C84.4774 20.804 84.6214 20.032 84.9094 19.376C85.2054 18.72 85.6534 18.212 86.2534 17.852C86.8614 17.484 87.6334 17.3 88.5694 17.3C89.4974 17.3 90.2614 17.484 90.8614 17.852C91.4614 18.212 91.9054 18.724 92.1934 19.388C92.4894 20.044 92.6374 20.816 92.6374 21.704ZM86.3854 21.704C86.3854 22.6 86.5574 23.308 86.9014 23.828C87.2454 24.34 87.7974 24.596 88.5574 24.596C89.3334 24.596 89.8894 24.34 90.2254 23.828C90.5614 23.308 90.7294 22.6 90.7294 21.704C90.7294 20.8 90.5614 20.092 90.2254 19.58C89.8894 19.068 89.3374 18.812 88.5694 18.812C87.8014 18.812 87.2454 19.068 86.9014 19.58C86.5574 20.092 86.3854 20.8 86.3854 21.704ZM102.008 26H99.7041L95.9721 19.52H95.9241C95.9401 19.928 95.9561 20.336 95.9721 20.744C95.9961 21.152 96.0161 21.56 96.0321 21.968V26H94.4121V17.432H96.7041L100.424 23.852H100.46C100.452 23.452 100.44 23.056 100.424 22.664C100.408 22.272 100.392 21.88 100.376 21.488V17.432H102.008V26ZM109.418 26L108.794 23.96H105.674L105.05 26H103.094L106.118 17.396H108.338L111.374 26H109.418ZM107.738 20.444C107.698 20.308 107.646 20.136 107.582 19.928C107.518 19.72 107.454 19.508 107.39 19.292C107.326 19.076 107.274 18.888 107.234 18.728C107.194 18.888 107.138 19.088 107.066 19.328C107.002 19.56 106.938 19.784 106.874 20C106.818 20.208 106.774 20.356 106.742 20.444L106.13 22.436H108.362L107.738 20.444ZM112.459 26V17.432H114.271V24.5H117.751V26H112.459ZM132.885 17.432L130.701 26H128.637L127.473 21.5C127.449 21.412 127.417 21.28 127.377 21.104C127.345 20.928 127.305 20.736 127.257 20.528C127.217 20.32 127.181 20.124 127.149 19.94C127.117 19.748 127.093 19.6 127.077 19.496C127.069 19.6 127.045 19.748 127.005 19.94C126.973 20.124 126.937 20.32 126.897 20.528C126.857 20.728 126.817 20.92 126.777 21.104C126.737 21.28 126.705 21.416 126.681 21.512L125.529 26H123.465L121.281 17.432H123.069L124.161 22.112C124.209 22.296 124.261 22.528 124.317 22.808C124.373 23.088 124.425 23.368 124.473 23.648C124.521 23.928 124.557 24.164 124.581 24.356C124.605 24.156 124.641 23.92 124.689 23.648C124.737 23.368 124.785 23.1 124.833 22.844C124.889 22.58 124.937 22.376 124.977 22.232L126.225 17.432H127.941L129.189 22.232C129.229 22.368 129.273 22.568 129.321 22.832C129.377 23.096 129.429 23.368 129.477 23.648C129.525 23.928 129.561 24.164 129.585 24.356C129.609 24.156 129.645 23.92 129.693 23.648C129.741 23.368 129.793 23.088 129.849 22.808C129.913 22.528 129.965 22.296 130.005 22.112L131.097 17.432H132.885ZM138.895 26H133.963V17.432H138.895V18.92H135.775V20.804H138.679V22.292H135.775V24.5H138.895V26ZM143.342 17.432C144.486 17.432 145.35 17.592 145.934 17.912C146.518 18.232 146.81 18.796 146.81 19.604C146.81 20.092 146.694 20.504 146.462 20.84C146.238 21.176 145.914 21.38 145.49 21.452V21.512C145.778 21.568 146.038 21.668 146.27 21.812C146.502 21.956 146.686 22.164 146.822 22.436C146.958 22.708 147.026 23.068 147.026 23.516C147.026 24.292 146.746 24.9 146.186 25.34C145.626 25.78 144.858 26 143.882 26H140.678V17.432H143.342ZM143.546 20.828C144.074 20.828 144.438 20.744 144.638 20.576C144.846 20.408 144.95 20.164 144.95 19.844C144.95 19.516 144.83 19.28 144.59 19.136C144.35 18.992 143.97 18.92 143.45 18.92H142.49V20.828H143.546ZM142.49 22.268V24.5H143.678C144.222 24.5 144.602 24.396 144.818 24.188C145.034 23.972 145.142 23.688 145.142 23.336C145.142 23.016 145.03 22.76 144.806 22.568C144.59 22.368 144.194 22.268 143.618 22.268H142.49ZM153.792 23.624C153.792 24.384 153.516 24.992 152.964 25.448C152.42 25.896 151.644 26.12 150.636 26.12C149.732 26.12 148.924 25.948 148.212 25.604V23.912C148.62 24.088 149.04 24.252 149.472 24.404C149.912 24.548 150.348 24.62 150.78 24.62C151.228 24.62 151.544 24.536 151.728 24.368C151.92 24.192 152.016 23.972 152.016 23.708C152.016 23.492 151.94 23.308 151.788 23.156C151.644 23.004 151.448 22.864 151.2 22.736C150.952 22.6 150.668 22.456 150.348 22.304C150.148 22.208 149.932 22.096 149.7 21.968C149.468 21.832 149.244 21.668 149.028 21.476C148.82 21.276 148.648 21.036 148.512 20.756C148.376 20.476 148.308 20.14 148.308 19.748C148.308 18.98 148.568 18.384 149.088 17.96C149.608 17.528 150.316 17.312 151.212 17.312C151.66 17.312 152.084 17.364 152.484 17.468C152.892 17.572 153.316 17.72 153.756 17.912L153.168 19.328C152.776 19.168 152.424 19.044 152.112 18.956C151.8 18.868 151.48 18.824 151.152 18.824C150.808 18.824 150.544 18.904 150.36 19.064C150.176 19.224 150.084 19.432 150.084 19.688C150.084 19.992 150.22 20.232 150.492 20.408C150.764 20.584 151.168 20.8 151.704 21.056C152.144 21.264 152.516 21.48 152.82 21.704C153.132 21.928 153.372 22.192 153.54 22.496C153.708 22.8 153.792 23.176 153.792 23.624ZM158.554 26H154.654V24.968L155.698 24.488V18.944L154.654 18.464V17.432H158.554V18.464L157.51 18.944V24.488L158.554 24.968V26ZM163.314 26H161.502V18.944H159.174V17.432H165.642V18.944H163.314V26ZM171.895 26H166.963V17.432H171.895V18.92H168.775V20.804H171.679V22.292H168.775V24.5H171.895V26Z" fill="#949494"/>
<path d="M60.3901 39H56.1221V31.146H60.3901V31.542H56.5511V34.666H60.1701V35.062H56.5511V38.604H60.3901V39ZM64.2487 33.082C64.41 33.082 64.5604 33.093 64.6997 33.115C64.839 33.1297 64.971 33.1553 65.0957 33.192L65.0187 33.588C64.8867 33.5513 64.7584 33.5257 64.6337 33.511C64.5164 33.489 64.3807 33.478 64.2267 33.478C63.6474 33.478 63.2074 33.6833 62.9067 34.094C62.6134 34.5047 62.4667 35.0583 62.4667 35.755V39H62.0487V33.17H62.4227L62.4557 34.281H62.4887C62.606 33.9437 62.8114 33.6613 63.1047 33.434C63.4054 33.1993 63.7867 33.082 64.2487 33.082ZM68.4596 33.082C68.621 33.082 68.7713 33.093 68.9106 33.115C69.05 33.1297 69.182 33.1553 69.3066 33.192L69.2296 33.588C69.0976 33.5513 68.9693 33.5257 68.8446 33.511C68.7273 33.489 68.5916 33.478 68.4376 33.478C67.8583 33.478 67.4183 33.6833 67.1176 34.094C66.8243 34.5047 66.6776 35.0583 66.6776 35.755V39H66.2596V33.17H66.6336L66.6666 34.281H66.6996C66.817 33.9437 67.0223 33.6613 67.3156 33.434C67.6163 33.1993 67.9976 33.082 68.4596 33.082ZM70.8776 33.115C70.8776 33.3057 70.8739 33.5257 70.8666 33.775C70.8592 34.0243 70.8519 34.2333 70.8446 34.402H70.8776C71.0096 34.0133 71.2552 33.6943 71.6146 33.445C71.9812 33.1883 72.4322 33.06 72.9676 33.06C73.7302 33.06 74.3132 33.3167 74.7166 33.83C75.1199 34.336 75.3216 35.084 75.3216 36.074C75.3216 36.6533 75.2299 37.174 75.0466 37.636C74.8706 38.0907 74.5956 38.45 74.2216 38.714C73.8549 38.978 73.3892 39.11 72.8246 39.11C72.3112 39.11 71.8932 39 71.5706 38.78C71.2552 38.5527 71.0279 38.2703 70.8886 37.933H70.8556L70.7896 39H70.4486V30.64H70.8776V33.115ZM72.9346 33.445C72.2232 33.445 71.7026 33.676 71.3726 34.138C71.0426 34.6 70.8776 35.249 70.8776 36.085V36.184C70.8776 37.0127 71.0316 37.6433 71.3396 38.076C71.6476 38.5087 72.1316 38.725 72.7916 38.725C73.4809 38.725 74.0016 38.494 74.3536 38.032C74.7056 37.57 74.8816 36.9137 74.8816 36.063C74.8816 34.3177 74.2326 33.445 72.9346 33.445ZM77.1569 31.036C77.2962 31.036 77.3879 31.0727 77.4319 31.146C77.4832 31.2193 77.5089 31.3147 77.5089 31.432C77.5089 31.5493 77.4832 31.6447 77.4319 31.718C77.3879 31.7913 77.2962 31.828 77.1569 31.828C77.0395 31.828 76.9552 31.7913 76.9039 31.718C76.8525 31.6447 76.8269 31.5493 76.8269 31.432C76.8269 31.3147 76.8525 31.2193 76.9039 31.146C76.9552 31.0727 77.0395 31.036 77.1569 31.036ZM77.3769 33.17V39H76.9479V33.17H77.3769ZM81.8296 33.06C82.4749 33.06 82.9699 33.2323 83.3146 33.577C83.6666 33.9217 83.8426 34.457 83.8426 35.183V39H83.4136V35.205C83.4136 34.5963 83.2743 34.1527 82.9956 33.874C82.7169 33.588 82.3173 33.445 81.7966 33.445C81.1586 33.445 80.6599 33.6357 80.3006 34.017C79.9413 34.391 79.7616 34.963 79.7616 35.733V39H79.3326V33.17H79.6736L79.7396 34.314H79.7726C79.9119 33.984 80.1466 33.6943 80.4766 33.445C80.8139 33.1883 81.2649 33.06 81.8296 33.06ZM87.209 38.725C87.3776 38.725 87.5316 38.714 87.671 38.692C87.8176 38.67 87.9496 38.637 88.067 38.593V38.956C87.9496 39 87.8176 39.0367 87.671 39.066C87.5243 39.0953 87.3593 39.11 87.176 39.11C86.67 39.11 86.307 38.967 86.087 38.681C85.867 38.395 85.757 37.977 85.757 37.427V33.544H84.877V33.258L85.757 33.159L85.889 31.751H86.186V33.17H88.034V33.544H86.186V37.394C86.186 37.8267 86.2593 38.1567 86.406 38.384C86.56 38.6113 86.8276 38.725 87.209 38.725ZM89.2673 38.681C89.2673 38.5563 89.2967 38.4537 89.3553 38.373C89.414 38.2923 89.5057 38.252 89.6303 38.252C89.7697 38.252 89.865 38.2923 89.9163 38.373C89.975 38.4537 90.0043 38.5563 90.0043 38.681C90.0043 38.8057 89.975 38.9083 89.9163 38.989C89.865 39.0623 89.7697 39.099 89.6303 39.099C89.5057 39.099 89.414 39.0623 89.3553 38.989C89.2967 38.9083 89.2673 38.8057 89.2673 38.681ZM97.5885 39H97.1925L92.4295 31.938H92.4075C92.4148 32.2387 92.4185 32.532 92.4185 32.818C92.4258 33.0967 92.4295 33.3937 92.4295 33.709V39H92.0225V31.146H92.4295L97.1705 38.186H97.1925C97.1925 37.9367 97.1888 37.6543 97.1815 37.339C97.1742 37.0237 97.1705 36.7303 97.1705 36.459V31.146H97.5885V39ZM104.111 39H99.8428V31.146H104.111V31.542H100.272V34.666H103.891V35.062H100.272V38.604H104.111V39ZM107.826 39H107.397V31.542H104.823V31.146H110.411V31.542H107.826V39Z" fill="#949494"/>
<path d="M23.507 27.4829V33.7415H17V16H41V27.4829H23.507ZM23.507 40V33.7415H41V40H23.507Z" fill="#949494"/>
</svg>
