<svg width="32" height="33" viewBox="0 0 32 33" fill="none" xmlns="http://www.w3.org/2000/svg">
<g opacity="0.5">
<rect x="1.5" y="1.5" width="29" height="30" rx="2.5" stroke="#09274B" stroke-width="3"/>
<rect x="7" y="7" width="18" height="3" rx="1.5" fill="#09274B"/>
<rect x="7" y="7" width="18" height="3" rx="1.5" fill="#09274B"/>
<rect x="7" y="13" width="18" height="3" rx="1.5" fill="#09274B"/>
<rect x="7" y="13" width="18" height="3" rx="1.5" fill="#09274B"/>
<path d="M7.43611 20.1H9.85111C10.3971 20.1 10.8778 20.2003 11.2931 20.401C11.7131 20.597 12.0374 20.8793 12.2661 21.248C12.4994 21.6167 12.6161 22.0507 12.6161 22.55C12.6161 23.0493 12.4994 23.4833 12.2661 23.852C12.0374 24.2207 11.7131 24.5053 11.2931 24.706C10.8778 24.902 10.3971 25 9.85111 25H7.43611V20.1ZM9.78111 23.712C10.1358 23.712 10.4181 23.6117 10.6281 23.411C10.8428 23.2057 10.9501 22.9187 10.9501 22.55C10.9501 22.1813 10.8428 21.8967 10.6281 21.696C10.4181 21.4907 10.1358 21.388 9.78111 21.388H9.08811V23.712H9.78111ZM15.7883 25.112C15.261 25.112 14.7873 25.0023 14.3673 24.783C13.9473 24.5637 13.6183 24.2603 13.3803 23.873C13.1423 23.481 13.0233 23.04 13.0233 22.55C13.0233 22.06 13.1423 21.6213 13.3803 21.234C13.6183 20.842 13.9473 20.5363 14.3673 20.317C14.7873 20.0977 15.261 19.988 15.7883 19.988C16.3156 19.988 16.7893 20.0977 17.2093 20.317C17.6293 20.5363 17.9583 20.842 18.1963 21.234C18.4343 21.6213 18.5533 22.06 18.5533 22.55C18.5533 23.04 18.4343 23.481 18.1963 23.873C17.9583 24.2603 17.6293 24.5637 17.2093 24.783C16.7893 25.0023 16.3156 25.112 15.7883 25.112ZM15.7883 23.775C15.9936 23.775 16.178 23.726 16.3413 23.628C16.5093 23.5253 16.6423 23.383 16.7403 23.201C16.8383 23.0143 16.8873 22.7973 16.8873 22.55C16.8873 22.3027 16.8383 22.088 16.7403 21.906C16.6423 21.7193 16.5093 21.577 16.3413 21.479C16.178 21.3763 15.9936 21.325 15.7883 21.325C15.583 21.325 15.3963 21.3763 15.2283 21.479C15.065 21.577 14.9343 21.7193 14.8363 21.906C14.7383 22.088 14.6893 22.3027 14.6893 22.55C14.6893 22.7973 14.7383 23.0143 14.8363 23.201C14.9343 23.383 15.065 23.5253 15.2283 23.628C15.3963 23.726 15.583 23.775 15.7883 23.775ZM21.6869 25.112C21.1689 25.112 20.7022 25.0047 20.2869 24.79C19.8716 24.5707 19.5449 24.2673 19.3069 23.88C19.0736 23.488 18.9569 23.0447 18.9569 22.55C18.9569 22.0553 19.0736 21.6143 19.3069 21.227C19.5449 20.835 19.8716 20.5317 20.2869 20.317C20.7022 20.0977 21.1689 19.988 21.6869 19.988C22.1629 19.988 22.5876 20.072 22.9609 20.24C23.3342 20.408 23.6422 20.6507 23.8849 20.968L22.8419 21.899C22.5386 21.5163 22.1816 21.325 21.7709 21.325C21.4256 21.325 21.1479 21.437 20.9379 21.661C20.7279 21.8803 20.6229 22.1767 20.6229 22.55C20.6229 22.9233 20.7279 23.222 20.9379 23.446C21.1479 23.6653 21.4256 23.775 21.7709 23.775C22.1816 23.775 22.5386 23.5837 22.8419 23.201L23.8849 24.132C23.6422 24.4493 23.3342 24.692 22.9609 24.86C22.5876 25.028 22.1629 25.112 21.6869 25.112Z" fill="#09274B"/>
</g>
</svg>
