<svg width="40" height="40" viewBox="0 0 81 81" fill="none" xmlns="http://www.w3.org/2000/svg">
<path fill-rule="evenodd" clip-rule="evenodd" d="M22.8466 30.5103C21.3704 29.0345 18.9776 29.0345 17.5019 30.5103C16.026 31.9862 16.026 34.3792 17.5024 35.8549L37.5395 55.8917C38.248 56.6007 39.2095 56.9988 40.2115 56.9988C41.2137 56.9988 42.175 56.6007 42.8839 55.8917L62.9208 35.8544C64.3965 34.3784 64.3965 31.9854 62.9205 30.5096C61.4446 29.0341 59.0515 29.0341 57.5758 30.5096L43.991 44.095L43.9905 3.7793C43.9905 1.69202 42.2986 0 40.2112 0C38.1241 0 36.4319 1.69202 36.4319 3.7793L36.4324 44.0961L22.8466 30.5103ZM3.7793 80.4236H76.6447C78.7316 80.4236 80.424 78.7316 80.4237 76.6443C80.4237 74.5571 78.7313 72.865 76.6444 72.865H3.7793C1.69238 72.865 0 74.5571 0 76.6443C0 78.7316 1.69238 80.4236 3.7793 80.4236Z" fill="white"/>
</svg>
