<svg width="30" height="30" viewBox="0 0 30 30" fill="none" xmlns="http://www.w3.org/2000/svg">
<circle cx="14.5182" cy="14.5182" r="14.5182" fill="#C4C4C4" fill-opacity="0.01"/>
<path d="M0.961682 13.1141L25.3939 3.13081C26.168 2.75049 26.0389 3.28927 25.8777 3.6062C24.1037 9.94477 20.5074 22.9072 20.3139 24.0481C20.1204 25.189 19.5882 24.9989 19.3463 24.7612L13.0627 21.3026C12.4983 21.778 10.154 26.4251 10.154 26.4251C8.99285 29.2774 8.86383 27.6135 8.94447 26.4251V20.1141C9.11762 19.944 9.31529 19.7483 9.53333 19.5314C12.0569 17.0204 17.3098 11.6624 18.8684 10.1309C20.7297 8.30202 19.5135 8.78395 18.6265 9.41781L7.01518 17.7372C6.20884 17.341 2.70338 15.5386 0.961682 14.7779C-0.780017 14.0173 0.235974 13.3518 0.961682 13.1141Z" fill="#09274B"/>
</svg>
