<svg width="29" height="29" viewBox="0 0 29 29" fill="none" xmlns="http://www.w3.org/2000/svg">
<path d="M14.5 0C6.48875 0 0 6.65729 0 14.868C0 21.4382 4.15425 27.0099 9.91438 28.9743C10.6394 29.1143 10.9052 28.6541 10.9052 28.2594C10.9052 27.9064 10.8931 26.9709 10.8871 25.7314C6.85367 26.6279 6.003 23.7368 6.003 23.7368C5.34325 22.0208 4.38987 21.5618 4.38987 21.5618C3.07642 20.6401 4.49138 20.659 4.49138 20.659C5.94742 20.7624 6.71229 22.191 6.71229 22.191C8.00521 24.4643 10.1065 23.8074 10.9354 23.4279C11.0659 22.4658 11.4393 21.8115 11.8538 21.4395C8.63354 21.0676 5.249 19.7891 5.249 14.0925C5.249 12.4698 5.81087 11.1434 6.74129 10.1032C6.57817 9.72746 6.08879 8.2157 6.86817 6.16808C6.86817 6.16808 8.08254 5.76965 10.8557 7.69245C12.0157 7.36211 13.2482 7.1982 14.4807 7.19063C15.7132 7.1982 16.9457 7.36211 18.1057 7.69245C20.8607 5.76965 22.075 6.16808 22.075 6.16808C22.8544 8.2157 22.365 9.72746 22.22 10.1032C23.1444 11.1434 23.7063 12.4698 23.7063 14.0925C23.7063 19.8042 20.3169 21.0612 17.0907 21.4269C17.5982 21.8732 18.0694 22.7848 18.0694 24.1781C18.0694 26.1677 18.0513 27.7665 18.0513 28.2494C18.0513 28.639 18.305 29.1042 19.0482 28.9554C24.8494 27.0036 29 21.4282 29 14.868C29 6.65729 22.5076 0 14.5 0Z" fill="#09274B"/>
</svg>
