<svg width="30" height="30" viewBox="0 0 30 30" fill="none" xmlns="http://www.w3.org/2000/svg">
<path fill-rule="evenodd" clip-rule="evenodd" d="M14.5182 29.0365C22.5365 29.0365 29.0365 22.5365 29.0365 14.5182C29.0365 6.50004 22.5365 0 14.5182 0C6.50004 0 0 6.50004 0 14.5182C0 22.5365 6.50004 29.0365 14.5182 29.0365ZM11.1328 7.97906C10.8023 8.18659 10.4948 8.40948 10.2104 8.64775L11.1558 10.1004C11.3172 10.3848 11.5632 10.527 11.8937 10.527C12.0397 10.527 12.1858 10.4847 12.3318 10.4002C12.4778 10.3156 12.6469 10.2234 12.8391 10.1235C13.0389 10.0159 13.2734 9.91981 13.5424 9.83526C13.8191 9.75071 14.1611 9.70844 14.5685 9.70844C15.0988 9.70844 15.5139 9.84679 15.8136 10.1235C16.1211 10.3925 16.2748 10.7576 16.2748 11.2188C16.2748 11.6184 16.1826 11.9643 15.9981 12.2564C15.8213 12.5408 15.6023 12.8021 15.3409 13.0404C15.0796 13.271 14.7991 13.49 14.4993 13.6975C14.1995 13.8974 13.9267 14.1126 13.6807 14.3432C13.4425 14.5661 13.2541 14.8197 13.1158 15.1041C12.9774 15.3808 12.939 15.7075 13.0005 16.0841L13.2541 17.9403H15.6983L16.0212 16.3262C16.075 16.0879 16.1979 15.8727 16.3901 15.6806C16.5899 15.4884 16.8205 15.2963 17.0818 15.1041C17.3509 14.9043 17.6314 14.6891 17.9235 14.4585C18.2232 14.2279 18.4961 13.955 18.742 13.6399C18.988 13.3248 19.1917 12.9558 19.3531 12.5331C19.5145 12.1027 19.5952 11.5954 19.5952 11.0112C19.5952 10.3963 19.4838 9.8391 19.2609 9.33951C19.0456 8.83222 18.7344 8.4018 18.327 8.04824C17.9196 7.68699 17.4239 7.41029 16.8397 7.21813C16.2633 7.02598 15.6138 6.9299 14.8913 6.9299C14.3763 6.9299 13.8959 6.97602 13.4501 7.06825C13.012 7.1528 12.6008 7.27578 12.2165 7.43719C11.8322 7.59091 11.471 7.77153 11.1328 7.97906ZM12.4817 21.3299C12.3818 21.5681 12.3318 21.8256 12.3318 22.1023C12.3318 22.379 12.3818 22.6404 12.4817 22.8863C12.5893 23.1246 12.7315 23.3321 12.9083 23.5089C13.0927 23.6857 13.3079 23.824 13.5539 23.9239C13.7999 24.0239 14.0689 24.0738 14.3609 24.0738C14.6453 24.0738 14.9105 24.0239 15.1565 23.9239C15.4024 23.824 15.6176 23.6857 15.8021 23.5089C15.9866 23.3321 16.1288 23.1246 16.2287 22.8863C16.3363 22.6404 16.3901 22.379 16.3901 22.1023C16.3901 21.8256 16.3363 21.5681 16.2287 21.3299C16.1288 21.0916 15.9866 20.8841 15.8021 20.7073C15.6176 20.5305 15.4024 20.3922 15.1565 20.2922C14.9105 20.1846 14.6453 20.1308 14.3609 20.1308C14.0689 20.1308 13.7999 20.1846 13.5539 20.2922C13.3079 20.3922 13.0927 20.5305 12.9083 20.7073C12.7315 20.8841 12.5893 21.0916 12.4817 21.3299Z" fill="#09274B"/>
</svg>
