<svg width="71" height="21" viewBox="0 0 71 21" fill="none" xmlns="http://www.w3.org/2000/svg">
<mask id="mask0" mask-type="alpha" maskUnits="userSpaceOnUse" x="0" y="0" width="71" height="21">
<rect width="71" height="21" fill="#C4C4C4"/>
</mask>
<g mask="url(#mask0)">
<g filter="url(#filter0_d)">
<path d="M11.5 21.5C11.5 21.2239 11.7239 21 12 21H20.3136C22.0228 21 23.6508 20.2711 24.7892 18.9961L33.2161 9.55796C34.4251 8.20387 36.5503 8.22537 37.7317 9.60364L45.9143 19.15C46.9208 20.3242 48.39 21 49.9365 21H56.5C56.7761 21 57 21.2239 57 21.5V21.5C57 21.7761 56.7761 22 56.5 22H12C11.7239 22 11.5 21.7761 11.5 21.5V21.5Z" fill="#F3F6F9"/>
</g>
</g>
<defs>
<filter id="filter0_d" x="3.5" y="0.556015" width="61.5" height="29.444" filterUnits="userSpaceOnUse" color-interpolation-filters="sRGB">
<feFlood flood-opacity="0" result="BackgroundImageFix"/>
<feColorMatrix in="SourceAlpha" type="matrix" values="0 0 0 0 0 0 0 0 0 0 0 0 0 0 0 0 0 0 127 0"/>
<feOffset/>
<feGaussianBlur stdDeviation="4"/>
<feColorMatrix type="matrix" values="0 0 0 0 0 0 0 0 0 0 0 0 0 0 0 0 0 0 0.25 0"/>
<feBlend mode="normal" in2="BackgroundImageFix" result="effect1_dropShadow"/>
<feBlend mode="normal" in="SourceGraphic" in2="effect1_dropShadow" result="shape"/>
</filter>
</defs>
</svg>
